<?xml version="1.0" encoding="UTF-8" standalone="no"?>
<!-- Created with Inkscape (http://www.inkscape.org/) -->

<svg
   width="68.165855mm"
   height="91.23719mm"
   viewBox="0 0 68.165855 91.23719"
   version="1.1"
   id="svg5"
   inkscape:version="1.1.2 (0a00cf5339, 2022-02-04)"
   sodipodi:docname="web.svg"
   xmlns:inkscape="http://www.inkscape.org/namespaces/inkscape"
   xmlns:sodipodi="http://sodipodi.sourceforge.net/DTD/sodipodi-0.dtd"
   xmlns="http://www.w3.org/2000/svg"
   xmlns:svg="http://www.w3.org/2000/svg">
  <sodipodi:namedview
     id="namedview7"
     pagecolor="#505050"
     bordercolor="#eeeeee"
     borderopacity="1"
     inkscape:pageshadow="0"
     inkscape:pageopacity="0"
     inkscape:pagecheckerboard="0"
     inkscape:document-units="mm"
     showgrid="false"
     fit-margin-top="0"
     fit-margin-left="0"
     fit-margin-right="0"
     fit-margin-bottom="0"
     inkscape:zoom="0.89706817"
     inkscape:cx="300.4231"
     inkscape:cy="185.60462"
     inkscape:window-width="1846"
     inkscape:window-height="1016"
     inkscape:window-x="74"
     inkscape:window-y="27"
     inkscape:window-maximized="1"
     inkscape:current-layer="layer1" />
  <defs
     id="defs2" />
  <g
     inkscape:label="Layer 1"
     inkscape:groupmode="layer"
     id="layer1"
     transform="translate(-67.220526,-103.01618)">
    <path
       d="m 85.220568,145.9781 -3.474858,9.93198 h 39.11548 l -3.47486,-9.93198 c -0.59912,-1.70414 -2.21007,-2.84912 -4.02072,-2.84912 H 89.24129 c -1.810653,0 -3.421605,1.14498 -4.020722,2.84912 z m -12.727839,10.57103 4.686401,-13.38021 c 1.797339,-5.12575 6.630194,-8.56067 12.06216,-8.56067 h 24.12432 c 5.43196,0 10.26482,3.43492 12.06216,8.56067 l 4.6864,13.38021 c 3.08877,1.27811 5.27221,4.32694 5.27221,7.88168 v 19.17164 6.39055 c 0,2.35652 -1.90386,4.26037 -4.26037,4.26037 h -4.26037 c -2.35651,0 -4.26036,-1.90385 -4.26036,-4.26037 v -6.39055 H 80.001624 v 6.39055 c 0,2.35652 -1.903856,4.26037 -4.260368,4.26037 h -4.260367 c -2.356513,0 -4.260363,-1.90385 -4.260363,-4.26037 v -6.39055 -19.17164 c 0,-3.55474 2.183434,-6.60357 5.272203,-7.88168 z m 11.769257,12.14205 a 4.260366,4.260366 0 1 0 -8.52073,0 4.260366,4.260366 0 1 0 8.52073,0 z m 38.343294,4.26036 a 4.260366,4.260366 0 1 0 0,-8.52073 4.260366,4.260366 0 1 0 0,8.52073 z"
       id="path831"
       style="stroke-width:0.133136" />
    <path
       d="m 76.374289,119.04775 c 6.472671,-6.21002 15.252987,-10.02795 24.933851,-10.02795 9.68086,0 18.46117,3.81793 24.93385,10.02795 1.20072,1.14444 3.09562,1.10692 4.24005,-0.0844 1.14445,-1.19136 1.10694,-3.09563 -0.0844,-4.24007 -7.54206,-7.25127 -17.79514,-11.7071 -29.08947,-11.7071 -11.294347,0 -21.54743,4.45583 -29.098876,11.69771 -1.191346,1.15383 -1.228869,3.04872 -0.08442,4.24946 1.144443,1.20072 3.048722,1.23824 4.240067,0.0844 z m 24.933851,4.98113 c 5.32822,0 10.18742,1.97933 13.90216,5.25318 1.24762,1.09754 3.14253,0.9756 4.24007,-0.26265 1.09754,-1.23826 0.97558,-3.14252 -0.26266,-4.24007 -4.76538,-4.20254 -11.03167,-6.75409 -17.87957,-6.75409 -6.847902,0 -13.114194,2.55155 -17.8702,6.75409 -1.24763,1.09755 -1.360199,2.99244 -0.262657,4.24007 1.097537,1.24762 2.992438,1.36019 4.240065,0.26265 3.705371,-3.27385 8.56456,-5.25318 13.902172,-5.25318 z"
       id="path840"
       style="stroke-width:0.0938065"
       sodipodi:nodetypes="cscscscsccccscscsccc" />
  </g>
</svg>
